<svg width="18" height="18" viewBox="0 0 18 18" fill="none" xmlns="http://www.w3.org/2000/svg">
<path d="M16.5 16.3L11.5 11.3M13.1667 7.13332C13.1667 7.89937 13.0158 8.65791 12.7226 9.36564C12.4295 10.0734 11.9998 10.7164 11.4581 11.2581C10.9164 11.7998 10.2734 12.2295 9.56565 12.5226C8.85792 12.8158 8.09938 12.9667 7.33333 12.9667C6.56729 12.9667 5.80875 12.8158 5.10101 12.5226C4.39328 12.2295 3.75022 11.7998 3.20854 11.2581C2.66687 10.7164 2.23719 10.0734 1.94404 9.36564C1.65088 8.65791 1.5 7.89937 1.5 7.13332C1.5 5.58622 2.11458 4.10249 3.20854 3.00853C4.30251 1.91457 5.78624 1.29999 7.33333 1.29999C8.88043 1.29999 10.3642 1.91457 11.4581 3.00853C12.5521 4.10249 13.1667 5.58622 13.1667 7.13332Z" stroke="#A3A3A3" stroke-width="1.66667" stroke-linecap="round" stroke-linejoin="round"/>
</svg>
